<svg xmlns="http://www.w3.org/2000/svg" height="937pt" version="1.1" viewBox="0 -62 937.5 937" width="937pt">
<g id="surface1">
<path d="M 890.625 344 L 46.875 344 C 20.992188 344 0 364.992188 0 390.875 L 0 422.125 C 0 448.007812 20.992188 469 46.875 469 L 890.625 469 C 916.507812 469 937.5 448.007812 937.5 422.125 L 937.5 390.875 C 937.5 364.992188 916.507812 344 890.625 344 Z M 906.25 422.125 C 906.25 430.757812 899.257812 437.75 890.625 437.75 L 46.875 437.75 C 38.242188 437.75 31.25 430.757812 31.25 422.125 L 31.25 390.875 C 31.25 382.242188 38.242188 375.25 46.875 375.25 L 890.625 375.25 C 899.257812 375.25 906.25 382.242188 906.25 390.875 Z M 906.25 422.125 " style=" stroke:none;fill-rule:nonzero;fill:rgb(0%,0%,0%);fill-opacity:1;" />
<path d="M 531.25 125.25 C 531.25 90.734375 503.265625 62.75 468.75 62.75 C 434.234375 62.75 406.25 90.734375 406.25 125.25 C 406.25 159.765625 434.234375 187.75 468.75 187.75 C 503.265625 187.75 531.25 159.765625 531.25 125.25 Z M 437.5 125.25 C 437.5 107.988281 451.488281 94 468.75 94 C 486.011719 94 500 107.988281 500 125.25 C 500 142.511719 486.011719 156.5 468.75 156.5 C 451.488281 156.5 437.5 142.511719 437.5 125.25 Z M 437.5 125.25 " style=" stroke:none;fill-rule:nonzero;fill:rgb(0%,0%,0%);fill-opacity:1;" />
<path d="M 468.75 328.375 C 473.300781 328.375 477.625 326.390625 480.589844 322.9375 C 492.1875 309.484375 593.75 189.59375 593.75 125.25 C 593.75 56.210938 537.789062 0.25 468.75 0.25 C 399.710938 0.25 343.75 56.210938 343.75 125.25 C 343.75 189.59375 445.3125 309.484375 456.910156 322.9375 C 459.875 326.390625 464.199219 328.375 468.75 328.375 Z M 468.75 31.5 C 520.507812 31.554688 562.445312 73.492188 562.5 125.25 C 562.5 164.851562 502.84375 246.4375 468.75 288.359375 C 434.65625 246.453125 375 164.921875 375 125.25 C 375.054688 73.492188 416.992188 31.554688 468.75 31.5 Z M 468.75 31.5 " style=" stroke:none;fill-rule:nonzero;fill:rgb(0%,0%,0%);fill-opacity:1;" />
<path d="M 93.75 687.75 C 93.75 722.265625 121.734375 750.25 156.25 750.25 C 190.765625 750.25 218.75 722.265625 218.75 687.75 C 218.75 653.234375 190.765625 625.25 156.25 625.25 C 121.734375 625.25 93.75 653.234375 93.75 687.75 Z M 187.5 687.75 C 187.5 705.011719 173.511719 719 156.25 719 C 138.988281 719 125 705.011719 125 687.75 C 125 670.488281 138.988281 656.5 156.25 656.5 C 173.511719 656.5 187.5 670.488281 187.5 687.75 Z M 187.5 687.75 " style=" stroke:none;fill-rule:nonzero;fill:rgb(0%,0%,0%);fill-opacity:1;" />
<path d="M 144.410156 490.0625 C 132.8125 503.515625 31.25 623.40625 31.25 687.75 C 31.25 756.789062 87.210938 812.75 156.25 812.75 C 225.289062 812.75 281.25 756.789062 281.25 687.75 C 281.25 623.40625 179.6875 503.515625 168.089844 490.0625 C 165.039062 486.765625 160.75 484.875 156.25 484.875 C 151.75 484.875 147.460938 486.765625 144.410156 490.0625 Z M 156.25 781.5 C 104.492188 781.445312 62.554688 739.507812 62.5 687.75 C 62.5 648.148438 122.15625 566.5625 156.25 524.640625 C 190.34375 566.546875 250 648.078125 250 687.75 C 249.945312 739.507812 208.007812 781.445312 156.25 781.5 Z M 156.25 781.5 " style=" stroke:none;fill-rule:nonzero;fill:rgb(0%,0%,0%);fill-opacity:1;" />
<path d="M 718.75 687.75 C 718.75 722.265625 746.734375 750.25 781.25 750.25 C 815.765625 750.25 843.75 722.265625 843.75 687.75 C 843.75 653.234375 815.765625 625.25 781.25 625.25 C 746.734375 625.25 718.75 653.234375 718.75 687.75 Z M 812.5 687.75 C 812.5 705.011719 798.511719 719 781.25 719 C 763.988281 719 750 705.011719 750 687.75 C 750 670.488281 763.988281 656.5 781.25 656.5 C 798.511719 656.5 812.5 670.488281 812.5 687.75 Z M 812.5 687.75 " style=" stroke:none;fill-rule:nonzero;fill:rgb(0%,0%,0%);fill-opacity:1;" />
<path d="M 769.410156 490.0625 C 757.8125 503.515625 656.25 623.40625 656.25 687.75 C 656.25 756.789062 712.210938 812.75 781.25 812.75 C 850.289062 812.75 906.25 756.789062 906.25 687.75 C 906.25 623.40625 804.6875 503.515625 793.089844 490.0625 C 790.039062 486.765625 785.75 484.875 781.25 484.875 C 776.75 484.875 772.460938 486.765625 769.410156 490.0625 Z M 781.25 781.5 C 729.492188 781.445312 687.554688 739.507812 687.5 687.75 C 687.5 648.148438 747.15625 566.5625 781.25 524.640625 C 815.34375 566.546875 875 648.078125 875 687.75 C 874.945312 739.507812 833.007812 781.445312 781.25 781.5 Z M 781.25 781.5 " style=" stroke:none;fill-rule:nonzero;fill:rgb(0%,0%,0%);fill-opacity:1;" />
</g>
</svg>